<?xml version="1.0" encoding="utf-8"?><svg viewBox="0 0 48 48" xmlns="http://www.w3.org/2000/svg" xmlns:xlink="http://www.w3.org/1999/xlink"><style>:root>svg{display:none}:root>svg:target{display:block}</style><svg viewBox="0 0 30 30" id="footer-mail" xmlns="http://www.w3.org/2000/svg"><path d="M22.378 11.064l-5.554 4.516a2.871 2.871 0 01-3.575 0l-5.601-4.516"/><path fill-rule="evenodd" clip-rule="evenodd" d="M21.136 26.25c3.802.01 6.364-3.113 6.364-6.952v-8.585c0-3.84-2.562-6.963-6.364-6.963H8.864C5.062 3.75 2.5 6.874 2.5 10.713v8.585c0 3.839 2.562 6.963 6.364 6.952h12.272z"/></svg><svg viewBox="0 0 30 30" id="footer-phone" xmlns="http://www.w3.org/2000/svg"><path d="M17.941 3.125a9.962 9.962 0 018.8 8.79M17.941 7.554a5.533 5.533 0 014.375 4.375"/><path fill-rule="evenodd" clip-rule="evenodd" d="M13.79 15.59c4.986 4.986 6.117-.782 9.292 2.391 3.06 3.06 4.82 3.673.941 7.55-.485.39-3.571 5.087-14.417-5.756C-1.242 8.93 3.452 5.84 3.842 5.355c3.888-3.888 4.492-2.118 7.552.942 3.174 3.174-2.59 4.308 2.395 9.293z"/></svg><svg viewBox="0 0 48 48" id="instagram" xmlns="http://www.w3.org/2000/svg"><path fill-rule="evenodd" clip-rule="evenodd" d="M0 24C0 10.745 10.745 0 24 0s24 10.745 24 24-10.745 24-24 24S0 37.255 0 24zm24.001-12.8c-3.476 0-3.912.015-5.278.077-1.362.063-2.293.279-3.106.595a6.268 6.268 0 00-2.268 1.476 6.284 6.284 0 00-1.477 2.267c-.318.814-.534 1.745-.595 3.107-.061 1.365-.077 1.802-.077 5.278 0 3.476.016 3.911.077 5.277.063 1.362.279 2.293.595 3.106a6.271 6.271 0 001.476 2.268 6.268 6.268 0 002.267 1.477c.814.317 1.745.532 3.107.595 1.366.062 1.802.077 5.278.077 3.476 0 3.911-.015 5.276-.077 1.363-.063 2.294-.278 3.109-.595a6.263 6.263 0 002.266-1.477 6.284 6.284 0 001.477-2.267c.315-.814.53-1.745.595-3.107.061-1.365.077-1.8.077-5.277 0-3.476-.016-3.912-.077-5.278-.064-1.363-.28-2.293-.595-3.107a6.283 6.283 0 00-1.477-2.267 6.256 6.256 0 00-2.267-1.476c-.816-.316-1.747-.532-3.11-.595-1.365-.062-1.8-.077-5.277-.077h.004z"/><path fill-rule="evenodd" clip-rule="evenodd" d="M22.853 13.507H24c3.418 0 3.823.012 5.172.073 1.249.057 1.926.266 2.377.441.597.232 1.023.51 1.471.957.448.448.725.875.958 1.473.175.45.384 1.127.44 2.375.062 1.35.075 1.755.075 5.171 0 3.416-.013 3.822-.074 5.17-.057 1.249-.266 1.926-.441 2.377a3.958 3.958 0 01-.958 1.47 3.958 3.958 0 01-1.47.958c-.452.176-1.13.384-2.377.44-1.35.062-1.755.075-5.173.075s-3.823-.013-5.172-.074c-1.248-.058-1.925-.266-2.377-.442a3.964 3.964 0 01-1.472-.957 3.967 3.967 0 01-.958-1.471c-.175-.45-.384-1.128-.44-2.376-.062-1.35-.074-1.755-.074-5.173s.012-3.821.073-5.17c.057-1.249.266-1.926.441-2.377.232-.598.51-1.024.958-1.472a3.973 3.973 0 011.472-.958c.451-.176 1.129-.384 2.377-.441 1.18-.054 1.638-.07 4.024-.072v.003zm7.98 2.125a1.536 1.536 0 100 3.072 1.536 1.536 0 000-3.072zm-6.832 1.795a6.574 6.574 0 100 13.147 6.574 6.574 0 000-13.147z"/><path fill-rule="evenodd" clip-rule="evenodd" d="M24.001 19.733a4.267 4.267 0 110 8.534 4.267 4.267 0 010-8.534z"/></svg><svg viewBox="0 0 48 48" id="mail" xmlns="http://www.w3.org/2000/svg"><path fill-rule="evenodd" clip-rule="evenodd" d="M24 0C10.745 0 0 10.745 0 24s10.745 24 24 24 24-10.745 24-24S37.255 0 24 0zM10 23.96C10 16.263 16.28 10 24 10s14 6.263 14 13.96c0 1.09-.091 1.974-.295 2.86l-.003.014c0 .003-.102.412-.158.59-.346 1.103-.972 2.022-1.811 2.657a4.736 4.736 0 01-3.219.941 4.554 4.554 0 01-3.497-2.085A7.035 7.035 0 0124 31.022c-3.905 0-7.082-3.168-7.082-7.062 0-3.893 3.177-7.061 7.082-7.061 3.904 0 7.081 3.168 7.081 7.061v2.277c.006 1.328.9 1.87 1.663 1.932.76.059 1.771-.383 2.123-1.823.174-.79.262-1.593.262-2.386 0-6.12-4.992-11.098-11.13-11.098-6.136 0-11.129 4.979-11.129 11.098 0 6.12 4.993 11.099 11.13 11.099 2.136 0 4.214-.609 6.008-1.76l.032-.02 1.886 2.186-.04.028A13.946 13.946 0 0124 37.92c-7.72 0-14-6.263-14-13.96z"/><path fill-rule="evenodd" clip-rule="evenodd" d="M28.21 23.96a4.21 4.21 0 01-4.21 4.2 4.21 4.21 0 01-4.211-4.2 4.21 4.21 0 014.21-4.199 4.21 4.21 0 014.212 4.2z"/></svg><svg viewBox="0 0 48 48" id="phone" xmlns="http://www.w3.org/2000/svg"><path fill-rule="evenodd" clip-rule="evenodd" d="M24 0c13.255 0 24 10.745 24 24S37.255 48 24 48 0 37.255 0 24 10.745 0 24 0zm6.394 20.958c-.117-.948-.408-1.692-.926-2.352-.672-.85-1.53-1.358-2.802-1.66-.83-.2-1.164-.178-1.464.096-.279.257-.334.771-.12 1.104.15.242.323.328.804.423.642.118 1.085.27 1.488.501.855.494 1.253 1.267 1.296 2.518.02.588.07.769.276.977.38.381 1.057.307 1.344-.149.106-.172.122-.247.133-.646a6.33 6.33 0 00-.029-.812zm.012-5.818c2.033 1.645 3.17 3.982 3.339 6.888.07 1.144-.024 1.517-.427 1.729a.862.862 0 01-1.06-.164c-.188-.193-.26-.456-.258-.923.009-1.29-.288-2.73-.772-3.73a7.204 7.204 0 00-2.51-2.876c-.953-.636-2.213-1.065-3.435-1.172-.793-.07-1.076-.204-1.228-.584-.095-.227-.07-.62.04-.796.105-.162.34-.342.506-.39.175-.05 1.2.039 1.755.15 1.518.309 2.904.944 4.05 1.868zm7.046 18.076a3.194 3.194 0 00-.284-.569c-.597-.901-3.803-3.41-5.404-4.231-.915-.47-1.592-.627-2.094-.48-.54.152-.824.404-1.729 1.528-.365.45-.739.873-.838.94-.247.17-.73.308-1.07.308-.792-.005-2.227-.517-3.33-1.191-.858-.522-1.957-1.457-2.8-2.381-.995-1.087-1.672-2.045-2.207-3.127-.692-1.39-.867-2.239-.578-2.86a2.3 2.3 0 01.208-.375c.043-.047.488-.413.98-.811.967-.769 1.123-.944 1.303-1.47.227-.67.166-1.353-.185-2.04-.27-.523-.975-1.661-1.487-2.396-.677-.968-2.364-3.036-2.7-3.316-.606-.494-1.383-.58-2.24-.247-.905.351-2.6 1.717-3.325 2.67-.654.864-.905 1.476-.943 2.283-.033.664.024.939.374 1.788 2.743 6.66 6.835 11.978 12.458 16.2 2.936 2.206 5.982 3.886 9.142 5.034 1.842.668 2.643.702 3.585.151.398-.237 1.383-1.247 1.933-1.983.91-1.224 1.246-1.788 1.34-2.239.066-.308.014-.844-.109-1.186zm-1.21-15.015c.576 1.502.853 2.85.914 4.494.01.325.005.92-.016 1.322-.044.773-.086.926-.309 1.13-.357.336-1.054.256-1.318-.148-.138-.217-.157-.376-.13-1.278.076-2.67-.464-4.76-1.764-6.85-1.554-2.507-3.88-4.196-6.902-5.023-.771-.21-1.42-.338-2.431-.474-.658-.087-.803-.123-.965-.223-.49-.314-.497-1.11-.008-1.43.252-.168.439-.175 1.261-.07 2.413.302 4.566 1.019 6.335 2.102 1.268.778 2.068 1.476 3.097 2.7 1.089 1.304 1.666 2.27 2.235 3.748z"/></svg><svg viewBox="0 0 48 48" id="telegram" xmlns="http://www.w3.org/2000/svg"><path fill-rule="evenodd" clip-rule="evenodd" d="M48 24c0 13.255-10.745 24-24 24S0 37.255 0 24 10.745 0 24 0s24 10.745 24 24zm-31.928-2.198c-2.405 1.05-4.875 2.128-7.134 3.372-1.18.864.388 1.474 1.86 2.047.233.092.464.182.682.272.18.055.365.114.551.173 1.636.521 3.46 1.103 5.048.229 2.608-1.499 5.07-3.231 7.53-4.962.806-.568 1.611-1.135 2.422-1.693l.128-.083c.69-.447 2.243-1.454 1.669-.067-1.358 1.486-2.814 2.8-4.276 4.123-.986.891-1.976 1.785-2.942 2.738-.841.683-1.715 2.058-.773 3.015 2.17 1.52 4.374 3.001 6.576 4.483.717.482 1.434.964 2.149 1.447 1.212.968 3.107.185 3.373-1.328l.356-2.087c.658-3.844 1.316-7.69 1.897-11.548.079-.605.168-1.21.258-1.815.217-1.467.435-2.936.503-4.41-.175-1.473-1.96-1.15-2.953-.818-5.106 1.942-10.16 4.029-15.194 6.152-.57.253-1.148.505-1.73.76z"/></svg><svg viewBox="0 0 48 48" id="vk" xmlns="http://www.w3.org/2000/svg"><path fill-rule="evenodd" clip-rule="evenodd" d="M0 24C0 10.745 10.745 0 24 0s24 10.745 24 24-10.745 24-24 24S0 37.255 0 24zm25.256 7.876s.462-.05.698-.3c.217-.228.21-.66.21-.66s-.03-2.014.923-2.312c.94-.292 2.145 1.948 3.425 2.81.966.651 1.7.509 1.7.509l3.42-.047s1.788-.108.94-1.488c-.07-.113-.495-1.022-2.542-2.887-2.145-1.953-1.857-1.638.725-5.016 1.573-2.058 2.201-3.314 2.005-3.85-.187-.515-1.344-.378-1.344-.378l-3.849.023s-.285-.038-.497.086c-.206.122-.34.406-.34.406s-.609 1.591-1.422 2.946c-1.714 2.856-2.398 3.007-2.679 2.83-.652-.414-.49-1.661-.49-2.547 0-2.77.429-3.924-.832-4.222-.418-.1-.726-.165-1.797-.176-1.373-.013-2.536.005-3.194.32-.438.211-.776.68-.57.708.254.033.83.152 1.136.56.394.527.38 1.71.38 1.71s.227 3.26-.53 3.663c-.517.278-1.229-.288-2.758-2.88-.782-1.328-1.373-2.795-1.373-2.795s-.114-.274-.318-.422c-.247-.178-.591-.233-.591-.233l-3.657.023s-.55.015-.752.25c-.179.207-.013.638-.013.638s2.863 6.577 6.106 9.892c2.974 3.038 6.35 2.84 6.35 2.84h1.53z"/></svg></svg>